<svg xmlns="http://www.w3.org/2000/svg" version="1.1" xmlns:xlink="http://www.w3.org/1999/xlink" xmlns:svgjs="http://svgjs.dev/svgjs" viewBox="0 0 800 800"><defs><linearGradient x1="50%" y1="0%" x2="50%" y2="100%" id="ffflurry-grad" gradientTransform="rotate(270)"><stop stop-color="hsl(0, 0%, 100%)" stop-opacity="1" offset="0%"></stop><stop stop-color="#f9d34b" stop-opacity="1" offset="45%"></stop><stop stop-color="hsl(0, 0%, 64%)" stop-opacity="1" offset="100%"></stop></linearGradient></defs><rect width="100%" height="100%" fill="hsl(0, 0%, 100%)"></rect><g fill="url(#ffflurry-grad)"><rect width="209" height="3" x="454.5" y="421.5" rx="1.5" transform="rotate(45, 559, 423)" opacity="0.83"></rect><rect width="59" height="3" x="80.5" y="554.5" rx="1.5" transform="rotate(45, 110, 556)" opacity="0.87"></rect><rect width="171" height="3" x="407.5" y="271.5" rx="1.5" transform="rotate(45, 493, 273)" opacity="0.67"></rect><rect width="77" height="3" x="639.5" y="94.5" rx="1.5" transform="rotate(45, 678, 96)" opacity="0.94"></rect><rect width="180" height="3" x="414" y="432.5" rx="1.5" transform="rotate(45, 504, 434)" opacity="0.88"></rect><rect width="72" height="3" x="641" y="211.5" rx="1.5" transform="rotate(45, 677, 213)" opacity="0.64"></rect><rect width="321" height="3" x="133.5" y="294.5" rx="1.5" transform="rotate(45, 294, 296)" opacity="0.21"></rect><rect width="406" height="3" x="-171" y="581.5" rx="1.5" transform="rotate(45, 32, 583)" opacity="0.40"></rect><rect width="299" height="3" x="181.5" y="514.5" rx="1.5" transform="rotate(45, 331, 516)" opacity="0.25"></rect><rect width="411" height="3" x="-65.5" y="33.5" rx="1.5" transform="rotate(45, 140, 35)" opacity="0.89"></rect><rect width="516" height="3" x="390" y="303.5" rx="1.5" transform="rotate(45, 648, 305)" opacity="0.11"></rect><rect width="40" height="3" x="223" y="331.5" rx="1.5" transform="rotate(45, 243, 333)" opacity="0.14"></rect><rect width="158" height="3" x="221" y="126.5" rx="1.5" transform="rotate(45, 300, 128)" opacity="0.79"></rect><rect width="339" height="3" x="192.5" y="378.5" rx="1.5" transform="rotate(45, 362, 380)" opacity="0.08"></rect><rect width="277" height="3" x="415.5" y="231.5" rx="1.5" transform="rotate(45, 554, 233)" opacity="0.73"></rect><rect width="40" height="3" x="449" y="489.5" rx="1.5" transform="rotate(45, 469, 491)" opacity="0.60"></rect><rect width="411" height="3" x="219.5" y="408.5" rx="1.5" transform="rotate(45, 425, 410)" opacity="0.97"></rect><rect width="393" height="3" x="227.5" y="254.5" rx="1.5" transform="rotate(45, 424, 256)" opacity="0.50"></rect><rect width="85" height="3" x="570.5" y="741.5" rx="1.5" transform="rotate(45, 613, 743)" opacity="0.73"></rect><rect width="507" height="3" x="-134.5" y="482.5" rx="1.5" transform="rotate(45, 119, 484)" opacity="0.95"></rect><rect width="208" height="3" x="396" y="181.5" rx="1.5" transform="rotate(45, 500, 183)" opacity="0.33"></rect><rect width="331" height="3" x="12.5" y="440.5" rx="1.5" transform="rotate(45, 178, 442)" opacity="0.49"></rect><rect width="275" height="3" x="102.5" y="31.5" rx="1.5" transform="rotate(45, 240, 33)" opacity="0.32"></rect><rect width="551" height="3" x="-99.5" y="193.5" rx="1.5" transform="rotate(45, 176, 195)" opacity="0.62"></rect><rect width="577" height="3" x="375.5" y="489.5" rx="1.5" transform="rotate(45, 664, 491)" opacity="0.21"></rect><rect width="415" height="3" x="-64.5" y="114.5" rx="1.5" transform="rotate(45, 143, 116)" opacity="0.69"></rect><rect width="158" height="3" x="691" y="340.5" rx="1.5" transform="rotate(45, 770, 342)" opacity="0.90"></rect><rect width="345" height="3" x="469.5" y="30.5" rx="1.5" transform="rotate(45, 642, 32)" opacity="0.59"></rect><rect width="287" height="3" x="389.5" y="675.5" rx="1.5" transform="rotate(45, 533, 677)" opacity="0.99"></rect><rect width="162" height="3" x="499" y="518.5" rx="1.5" transform="rotate(45, 580, 520)" opacity="0.12"></rect><rect width="102" height="3" x="260" y="743.5" rx="1.5" transform="rotate(45, 311, 745)" opacity="0.90"></rect><rect width="295" height="3" x="-2.5" y="293.5" rx="1.5" transform="rotate(45, 145, 295)" opacity="0.82"></rect><rect width="148" height="3" x="152" y="106.5" rx="1.5" transform="rotate(45, 226, 108)" opacity="0.87"></rect><rect width="415" height="3" x="164.5" y="106.5" rx="1.5" transform="rotate(45, 372, 108)" opacity="0.25"></rect><rect width="424" height="3" x="19" y="242.5" rx="1.5" transform="rotate(45, 231, 244)" opacity="0.65"></rect><rect width="382" height="3" x="244" y="40.5" rx="1.5" transform="rotate(45, 435, 42)" opacity="0.19"></rect><rect width="452" height="3" x="345" y="289.5" rx="1.5" transform="rotate(45, 571, 291)" opacity="0.49"></rect><rect width="463" height="3" x="-186.5" y="36.5" rx="1.5" transform="rotate(45, 45, 38)" opacity="0.86"></rect><rect width="208" height="3" x="314" y="186.5" rx="1.5" transform="rotate(45, 418, 188)" opacity="0.48"></rect><rect width="429" height="3" x="305.5" y="114.5" rx="1.5" transform="rotate(45, 520, 116)" opacity="0.50"></rect><rect width="291" height="3" x="3.5" y="637.5" rx="1.5" transform="rotate(45, 149, 639)" opacity="0.78"></rect><rect width="90" height="3" x="598" y="605.5" rx="1.5" transform="rotate(45, 643, 607)" opacity="0.89"></rect><rect width="413" height="3" x="101.5" y="397.5" rx="1.5" transform="rotate(45, 308, 399)" opacity="0.64"></rect><rect width="300" height="3" x="130" y="457.5" rx="1.5" transform="rotate(45, 280, 459)" opacity="0.51"></rect><rect width="210" height="3" x="616" y="562.5" rx="1.5" transform="rotate(45, 721, 564)" opacity="0.72"></rect><rect width="161" height="3" x="21.5" y="739.5" rx="1.5" transform="rotate(45, 102, 741)" opacity="0.29"></rect><rect width="273" height="3" x="388.5" y="576.5" rx="1.5" transform="rotate(45, 525, 578)" opacity="0.69"></rect><rect width="90" height="3" x="347" y="321.5" rx="1.5" transform="rotate(45, 392, 323)" opacity="0.89"></rect><rect width="368" height="3" x="415" y="165.5" rx="1.5" transform="rotate(45, 599, 167)" opacity="0.74"></rect><rect width="213" height="3" x="304.5" y="572.5" rx="1.5" transform="rotate(45, 411, 574)" opacity="0.85"></rect><rect width="533" height="3" x="218.5" y="343.5" rx="1.5" transform="rotate(45, 485, 345)" opacity="0.83"></rect><rect width="387" height="3" x="-156.5" y="312.5" rx="1.5" transform="rotate(45, 37, 314)" opacity="0.07"></rect><rect width="502" height="3" x="509" y="91.5" rx="1.5" transform="rotate(45, 760, 93)" opacity="0.85"></rect><rect width="303" height="3" x="54.5" y="382.5" rx="1.5" transform="rotate(45, 206, 384)" opacity="0.15"></rect><rect width="512" height="3" x="-30" y="529.5" rx="1.5" transform="rotate(45, 226, 531)" opacity="0.78"></rect><rect width="168" height="3" x="429" y="28.5" rx="1.5" transform="rotate(45, 513, 30)" opacity="0.95"></rect><rect width="176" height="3" x="248" y="35.5" rx="1.5" transform="rotate(45, 336, 37)" opacity="1.00"></rect><rect width="117" height="3" x="640.5" y="352.5" rx="1.5" transform="rotate(45, 699, 354)" opacity="0.92"></rect><rect width="486" height="3" x="108" y="259.5" rx="1.5" transform="rotate(45, 351, 261)" opacity="0.70"></rect><rect width="356" height="3" x="570" y="412.5" rx="1.5" transform="rotate(45, 748, 414)" opacity="0.85"></rect><rect width="185" height="3" x="342.5" y="121.5" rx="1.5" transform="rotate(45, 435, 123)" opacity="0.93"></rect><rect width="589" height="3" x="166.5" y="754.5" rx="1.5" transform="rotate(45, 461, 756)" opacity="0.78"></rect><rect width="668" height="3" x="-271" y="217.5" rx="1.5" transform="rotate(45, 63, 219)" opacity="0.87"></rect><rect width="334" height="3" x="141" y="200.5" rx="1.5" transform="rotate(45, 308, 202)" opacity="0.14"></rect><rect width="257" height="3" x="438.5" y="67.5" rx="1.5" transform="rotate(45, 567, 69)" opacity="0.94"></rect><rect width="553" height="3" x="456.5" y="719.5" rx="1.5" transform="rotate(45, 733, 721)" opacity="0.95"></rect><rect width="392" height="3" x="559" y="480.5" rx="1.5" transform="rotate(45, 755, 482)" opacity="0.80"></rect><rect width="204" height="3" x="-63" y="431.5" rx="1.5" transform="rotate(45, 39, 433)" opacity="0.58"></rect><rect width="227" height="3" x="658.5" y="599.5" rx="1.5" transform="rotate(45, 772, 601)" opacity="0.98"></rect><rect width="517" height="3" x="498.5" y="245.5" rx="1.5" transform="rotate(45, 757, 247)" opacity="0.45"></rect><rect width="98" height="3" x="588" y="420.5" rx="1.5" transform="rotate(45, 637, 422)" opacity="0.16"></rect><rect width="144" height="3" x="321" y="499.5" rx="1.5" transform="rotate(45, 393, 501)" opacity="0.29"></rect><rect width="64" height="3" x="396" y="650.5" rx="1.5" transform="rotate(45, 428, 652)" opacity="0.31"></rect><rect width="422" height="3" x="73" y="634.5" rx="1.5" transform="rotate(45, 284, 636)" opacity="0.59"></rect><rect width="128" height="3" x="-12" y="122.5" rx="1.5" transform="rotate(45, 52, 124)" opacity="0.61"></rect><rect width="416" height="3" x="376" y="355.5" rx="1.5" transform="rotate(45, 584, 357)" opacity="0.67"></rect><rect width="257" height="3" x="-22.5" y="372.5" rx="1.5" transform="rotate(45, 106, 374)" opacity="0.36"></rect></g></svg>