<svg xmlns="http://www.w3.org/2000/svg" version="1.1" xmlns:xlink="http://www.w3.org/1999/xlink" xmlns:svgjs="http://svgjs.dev/svgjs" viewBox="0 0 1422 800"><defs><linearGradient x1="50%" y1="0%" x2="50%" y2="100%" id="oooscillate-grad"><stop stop-color="#f9d34b" stop-opacity="1" offset="0%"></stop><stop stop-color="hsl(0, 0%, 53%)" stop-opacity="1" offset="100%"></stop></linearGradient></defs><g stroke-width="2" stroke="url(#oooscillate-grad)" fill="none" stroke-linecap="round"><path d="M 0 1925 Q 355.5 195 711 400 Q 1066.5 605 1422 1925" opacity="1.00"></path><path d="M 0 1870 Q 355.5 195 711 400 Q 1066.5 605 1422 1870" opacity="0.97"></path><path d="M 0 1815 Q 355.5 195 711 400 Q 1066.5 605 1422 1815" opacity="0.94"></path><path d="M 0 1760 Q 355.5 195 711 400 Q 1066.5 605 1422 1760" opacity="0.92"></path><path d="M 0 1705 Q 355.5 195 711 400 Q 1066.5 605 1422 1705" opacity="0.89"></path><path d="M 0 1650 Q 355.5 195 711 400 Q 1066.5 605 1422 1650" opacity="0.86"></path><path d="M 0 1595 Q 355.5 195 711 400 Q 1066.5 605 1422 1595" opacity="0.83"></path><path d="M 0 1540 Q 355.5 195 711 400 Q 1066.5 605 1422 1540" opacity="0.80"></path><path d="M 0 1485 Q 355.5 195 711 400 Q 1066.5 605 1422 1485" opacity="0.78"></path><path d="M 0 1430 Q 355.5 195 711 400 Q 1066.5 605 1422 1430" opacity="0.75"></path><path d="M 0 1375 Q 355.5 195 711 400 Q 1066.5 605 1422 1375" opacity="0.72"></path><path d="M 0 1320 Q 355.5 195 711 400 Q 1066.5 605 1422 1320" opacity="0.69"></path><path d="M 0 1265 Q 355.5 195 711 400 Q 1066.5 605 1422 1265" opacity="0.66"></path><path d="M 0 1210 Q 355.5 195 711 400 Q 1066.5 605 1422 1210" opacity="0.64"></path><path d="M 0 1155 Q 355.5 195 711 400 Q 1066.5 605 1422 1155" opacity="0.61"></path><path d="M 0 1100 Q 355.5 195 711 400 Q 1066.5 605 1422 1100" opacity="0.58"></path><path d="M 0 1045 Q 355.5 195 711 400 Q 1066.5 605 1422 1045" opacity="0.55"></path><path d="M 0 990 Q 355.5 195 711 400 Q 1066.5 605 1422 990" opacity="0.53"></path><path d="M 0 935 Q 355.5 195 711 400 Q 1066.5 605 1422 935" opacity="0.50"></path><path d="M 0 880 Q 355.5 195 711 400 Q 1066.5 605 1422 880" opacity="0.47"></path><path d="M 0 825 Q 355.5 195 711 400 Q 1066.5 605 1422 825" opacity="0.44"></path><path d="M 0 770 Q 355.5 195 711 400 Q 1066.5 605 1422 770" opacity="0.41"></path><path d="M 0 715 Q 355.5 195 711 400 Q 1066.5 605 1422 715" opacity="0.39"></path><path d="M 0 660 Q 355.5 195 711 400 Q 1066.5 605 1422 660" opacity="0.36"></path><path d="M 0 605 Q 355.5 195 711 400 Q 1066.5 605 1422 605" opacity="0.33"></path><path d="M 0 550 Q 355.5 195 711 400 Q 1066.5 605 1422 550" opacity="0.30"></path><path d="M 0 495 Q 355.5 195 711 400 Q 1066.5 605 1422 495" opacity="0.27"></path><path d="M 0 440 Q 355.5 195 711 400 Q 1066.5 605 1422 440" opacity="0.25"></path><path d="M 0 385 Q 355.5 195 711 400 Q 1066.5 605 1422 385" opacity="0.22"></path><path d="M 0 330 Q 355.5 195 711 400 Q 1066.5 605 1422 330" opacity="0.19"></path><path d="M 0 275 Q 355.5 195 711 400 Q 1066.5 605 1422 275" opacity="0.16"></path><path d="M 0 220 Q 355.5 195 711 400 Q 1066.5 605 1422 220" opacity="0.13"></path><path d="M 0 165 Q 355.5 195 711 400 Q 1066.5 605 1422 165" opacity="0.11"></path><path d="M 0 110 Q 355.5 195 711 400 Q 1066.5 605 1422 110" opacity="0.08"></path></g></svg>