<svg width="534" height="534" viewBox="0 0 534 534" fill="none" xmlns="http://www.w3.org/2000/svg">
<path d="M294.894 82.8308C296.14 82.0694 296.91 81.6992 297.72 81.47C313.356 77.0453 313.601 77.0746 311.765 94.2539C309.592 114.582 307.452 134.937 304.338 155.133C302.032 170.093 297.874 184.759 295.151 199.666C293.421 209.138 292.953 218.834 291.662 228.395C288.082 254.897 284.354 281.38 280.714 307.875C279.446 317.105 278.197 326.339 277.107 335.591C276.91 337.266 277.526 339.037 277.767 340.765C279.455 339.817 281.295 339.065 282.808 337.892C296.895 326.966 310.689 315.64 325.166 305.26C328.182 303.098 334.462 302.756 337.811 304.426C342.542 306.784 344.912 312.034 341.118 317.677C335.833 325.538 331.507 334.3 325.095 341.103C294.409 373.659 263.13 405.658 232.135 437.925C227.188 443.075 222.746 448.708 217.787 453.846C216.543 455.134 213.476 456.466 212.529 455.841C210.919 454.779 209.704 452.27 209.405 450.212C205.599 424.045 202.027 397.845 198.311 371.665C195.947 355.008 193.414 338.374 191.059 321.716C190.865 320.346 191.167 318.74 191.73 317.459C194.446 311.274 197.2 305.097 200.229 299.061C201.258 297.011 203.129 295.383 204.615 293.562C206.18 295.576 208.248 297.374 209.224 299.64C213.675 309.973 217.72 320.48 222.148 330.823C223.147 333.156 224.689 336.16 226.708 336.915C228.959 337.757 232.577 339.31 233.336 333.288C237.11 303.333 241.323 273.423 246.019 243.597C250.457 215.409 255.619 187.334 260.595 159.232C263.502 142.813 266.014 126.281 269.93 110.095C273.057 97.1715 281.008 87.4299 294.894 82.8308ZM282.537 217.605C283.757 210.527 285.031 203.458 286.139 196.364C286.301 195.325 285.672 194.164 285.409 193.06C285.062 193.439 284.77 193.896 284.359 194.186C279.888 197.346 275.74 202.269 270.835 203.199C263.601 204.571 262.157 209.609 260.754 214.541C258.8 221.411 258.063 228.634 256.963 235.73C256.749 237.114 256.913 239.659 257.496 239.848C258.937 240.316 260.971 240.194 262.32 239.475C265.829 237.602 268.839 234.432 272.516 233.318C279.763 231.123 283.003 226.803 282.537 217.605ZM267.891 248.671C263.01 252.273 257.085 255.088 253.574 259.724C250.735 263.473 250.531 269.371 249.7 274.405C249.283 276.932 250.072 279.658 250.316 282.295C252.612 281.344 255 280.562 257.18 279.394C259.444 278.181 261.384 276.345 263.68 275.213C272.789 270.723 281.289 266.123 279.031 253.424C278.419 249.986 279.698 246.213 280.11 242.594C276.342 244.315 272.575 246.036 267.891 248.671ZM284.367 181.056C288.029 173.497 291.753 165.967 295.301 158.354C296.055 156.735 296.166 154.816 296.573 153.036C294.501 153.682 292.197 153.952 290.411 155.058C287.468 156.882 285.17 160.184 282.054 161.212C270.563 165.005 267.581 174.827 264.471 184.6C263.893 186.414 264.593 188.633 264.703 190.666C266.775 190.11 269.006 189.874 270.885 188.935C275.166 186.797 279.274 184.313 284.367 181.056ZM255.992 319.028C252.634 321.162 248.216 322.589 246.196 325.613C243.842 329.138 243.586 334.058 242.42 338.373C245.446 337.407 248.5 336.518 251.492 335.454C254.657 334.329 257.722 332.919 260.903 331.847C266.48 329.966 274.186 317.922 271.163 314.466C266.292 308.898 262.978 317.476 258.345 317.244C257.881 317.221 257.387 317.81 255.992 319.028ZM276.129 138.111C274.604 141.433 272.753 144.654 271.686 148.116C271.126 149.934 271.938 152.173 272.131 154.221C273.817 153.371 275.588 152.655 277.173 151.646C281.282 149.03 285.012 145.569 289.432 143.744C298.395 140.044 297.388 131.893 298.829 124.809C298.895 124.488 295.612 122.717 295.018 123.153C288.893 127.653 283.001 132.469 276.129 138.111ZM280.706 107.958C280.096 110.738 279.469 113.514 278.881 116.298C278.512 118.048 278.201 119.811 277.864 121.568C279.94 120.778 282.456 120.483 284.008 119.105C288.537 115.08 293.349 111.085 296.752 106.18C299.195 102.66 299.685 97.7297 300.713 93.3505C300.879 92.6411 299.332 90.7482 298.536 90.7242C293.617 90.5765 281.983 100.832 280.706 107.958ZM265.145 297.099C271.546 295.662 275.31 291.982 275.184 285.132C275.157 283.704 274.741 282.282 274.505 280.857C273.247 281.366 271.92 281.749 270.745 282.405C265.042 285.588 259.528 289.147 253.663 291.989C247.53 294.961 245.345 299.671 245.967 306.052C246.094 307.359 246.771 308.613 247.195 309.891C248.417 309.161 249.697 308.511 250.852 307.688C255.333 304.493 259.774 301.242 265.145 297.099ZM245.008 350.095C245.634 351.922 245.917 355.101 246.941 355.36C254.117 357.171 266.291 350.841 269.184 344.145C269.543 343.316 269.407 341.754 268.841 341.183C268.193 340.529 266.595 340.096 265.778 340.44C259.111 343.238 252.53 346.24 245.008 350.095ZM266.061 394.867C266.899 394.03 267.993 393.329 268.522 392.33C269.657 390.182 270.501 387.88 271.464 385.641C269.579 386.973 267.308 387.997 265.922 389.728C264.669 391.292 258.925 393.04 266.061 394.867ZM225.786 354.663C227.006 353.739 228.825 353.022 229.243 351.82C229.535 350.979 227.911 349.475 227.143 348.267C226.691 349.79 226.239 351.313 225.786 354.663Z" fill="black"/>
</svg>
